<?xml version="1.0" encoding="UTF-8"?>
<svg id="Layer_1" data-name="Layer 1" xmlns="http://www.w3.org/2000/svg" viewBox="0 0 1700.84 493.45">
  <defs>
    <style>
      .cls-1 {
        fill: #266ed1;
        stroke-width: 0px;
      }
    </style>
  </defs>
  <g>
    <g>
      <path class="cls-1" d="m243.8,474.35l20.75-35.94c1.1-1.9-.28-4.28-2.47-4.28h-57.55c-2.2,0-3.57-2.38-2.47-4.28l108.72-188.11c.54-.93.51-2.08-.07-2.98l-27.81-43.11c-3.73-6.45-13.04-6.45-16.77,0l-136.86,237.06c-.51.88-1.45,1.43-2.47,1.43h-44.69c-11.58,0-18.81-12.53-13.03-22.56L261.19,78.82c5.98-10.35,20.92-10.35,26.89,0l89.57,155.14c1.1,1.9,3.85,1.9,4.95,0l25.93-44.9c1.1-1.9,3.85-1.9,4.95,0l123.3,213.54c5.14,8.92,7.59,18.37,7.73,27.61.17-10.08-2.31-20.46-7.95-30.24L325.39,34.21c-22.61-39.17-79.15-39.17-101.76,0L12.47,399.95c-22.61,39.17,5.65,88.14,50.88,88.14h178.01c2.65,0,5.29,0,7.94,0-4.3-2.32-6.99-6.18-6.73-10.01.06-.88.3-2.21,1.23-3.73Z"/>
      <path class="cls-1" d="m241.36,488.59H63.35c-21.42,0-40.6-11.08-51.31-29.63-10.71-18.55-10.71-40.71,0-59.26L223.19,33.96c10.71-18.55,29.89-29.62,51.32-29.62s40.61,11.07,51.32,29.62l211.16,365.74c5.42,9.4,8.19,19.94,8.01,30.5h-1c-.15-9.6-2.73-18.8-7.67-27.37l-123.3-213.54c-.43-.74-1.19-1.18-2.04-1.18h0c-.85,0-1.61.44-2.04,1.18l-25.92,44.9c-.61,1.05-1.69,1.68-2.9,1.68s-2.3-.63-2.91-1.68l-89.57-155.14c-2.72-4.7-7.58-7.51-13.01-7.51-5.43,0-10.3,2.81-13.01,7.51L69.5,411.81c-2.63,4.55-2.63,9.99,0,14.54s7.34,7.27,12.59,7.27h44.69c.84,0,1.62-.45,2.04-1.18l136.86-237.06c1.84-3.19,5.14-5.09,8.82-5.09s6.98,1.9,8.82,5.09l27.8,43.09c.69,1.06.72,2.4.09,3.5l-108.72,188.11c-.43.74-.43,1.62,0,2.36.43.74,1.19,1.18,2.04,1.18h57.55c1.21,0,2.3.63,2.91,1.68s.61,2.3,0,3.36l-20.75,35.95c-.69,1.13-1.07,2.31-1.16,3.5-.24,3.55,2.3,7.29,6.46,9.54l1.74.94h-9.92ZM274.51,5.34c-21.06,0-39.92,10.89-50.45,29.12L12.9,400.2c-10.53,18.24-10.53,40.02,0,58.26,10.53,18.24,29.39,29.12,50.45,29.12h178.01s6.16,0,6.16,0c-3.63-2.48-5.68-6.02-5.44-9.54.09-1.36.53-2.68,1.29-3.95l20.74-35.94c.43-.74.43-1.62,0-2.36s-1.19-1.18-2.04-1.18h-57.55c-1.21,0-2.3-.63-2.91-1.68s-.61-2.31,0-3.36l108.72-188.11c.44-.77.42-1.71-.06-2.46l-27.81-43.11c-1.67-2.89-4.64-4.61-7.96-4.61s-6.29,1.71-7.95,4.59l-136.86,237.06c-.6,1.04-1.71,1.68-2.91,1.68h-44.69c-5.62,0-10.65-2.91-13.46-7.77s-2.81-10.67,0-15.54L260.75,78.57c2.9-5.02,8.09-8.01,13.88-8.01,5.79,0,10.98,3,13.88,8.01l89.57,155.14c.43.74,1.19,1.18,2.04,1.18s1.61-.44,2.04-1.18l25.92-44.9c.61-1.05,1.69-1.68,2.91-1.68h0c1.21,0,2.3.63,2.91,1.68l123.3,213.54c.35.6.68,1.2,1,1.81-.64-1.33-1.34-2.65-2.08-3.94L324.96,34.46c-10.53-18.24-29.39-29.12-50.45-29.12Z"/>
    </g>
    <g>
      <path class="cls-1" d="m485.67,488.09h-236.36c.83.24,1.72.37,2.65.37h235.22c33.76,0,57.82-28.01,57.32-58.27-.5,30.32-24.89,57.89-58.83,57.89Z"/>
      <path class="cls-1" d="m487.18,488.96h-235.22c-.94,0-1.88-.13-2.79-.39l-3.41-.98h239.91c31.64,0,57.81-25.75,58.33-57.4h1c.25,15.4-5.86,30.6-16.79,41.71-10.83,11.01-25.4,17.07-41.03,17.07Z"/>
    </g>
    <g>
      <path class="cls-1" d="m379.18,360.3l34.88-60.42c.51-.88.51-1.97,0-2.86l-31.47-54.5c-1.1-1.9-3.85-1.9-4.95,0l-33.35,57.77-74.79,129.55c-1.1,1.9.27,4.28,2.47,4.28h216.3c2.2,0,3.57-2.38,2.47-4.28l-.25-.43c-.88-1.52-2.85-1.81-4.28-.78-1.92,1.38-6.34,1.48-13.63,1.48l-127.61-.12c-2.68,0-4.36-2.9-3.02-5.23l37.22-64.46Z"/>
      <path class="cls-1" d="m488.27,434.63h-216.3c-1.21,0-2.3-.63-2.91-1.68-.61-1.05-.61-2.31,0-3.36l108.15-187.32c.61-1.05,1.69-1.68,2.91-1.68s2.3.63,2.91,1.68l31.47,54.5c.6,1.04.6,2.32,0,3.36l-72.1,124.89c-.54.93-.54,2.05,0,2.98.54.93,1.51,1.49,2.59,1.49l127.61.12c7.09,0,11.52-.09,13.33-1.39.85-.61,1.89-.83,2.87-.62.91.2,1.67.75,2.14,1.56l.25.43c.61,1.05.61,2.31,0,3.36-.61,1.05-1.69,1.68-2.91,1.68Zm-108.15-193.03c-.85,0-1.61.44-2.04,1.18l-108.14,187.32c-.43.74-.43,1.62,0,2.36s1.19,1.18,2.04,1.18h216.3c.85,0,1.61-.44,2.04-1.18s.43-1.62,0-2.36l-.25-.43c-.33-.56-.85-.95-1.48-1.08-.7-.15-1.46.02-2.08.46-1.99,1.42-5.95,1.58-13.92,1.58l-127.61-.12c-1.44,0-2.73-.75-3.45-1.99-.72-1.25-.72-2.73,0-3.98l37.22-64.46.43.25-.43-.25,34.88-60.42c.42-.73.42-1.63,0-2.36l-31.46-54.5c-.43-.74-1.19-1.18-2.04-1.18Z"/>
    </g>
  </g>
  <g>
    <path class="cls-1" d="m729.56,278.1l-80.8,208.8c-.97,2.26-4.85,2.26-6.14,0l-97.29-253.08c-.97-1.94.32-3.88,2.91-3.88h43.96c1.62,0,2.91.65,3.23,1.94l50.42,140.92,33.94-94.7h49.77Z"/>
    <path class="cls-1" d="m861.76,488.51h-119.27c-1.94,0-3.56-1.62-3.56-2.91v-252.76c0-1.29,1.62-2.91,3.56-2.91h119.27v46.87h-73.37v58.5h101.49c1.94,0,3.56,1.29,3.56,2.91v41.05c0,1.29-1.62,2.91-3.56,2.91h-101.49v58.18h73.37v48.16Z"/>
    <path class="cls-1" d="m1074.76,488.51h-46.22c-.97,0-2.91-.97-3.23-1.94l-47.19-102.46h-27.8v101.49c0,1.29-1.62,2.91-3.56,2.91h-42.34c-1.62,0-3.23-1.62-3.23-2.91v-149h86.95c10.67,0,38.14-1.29,38.14-29.74s-30.38-30.06-38.14-30.06h-86.95v-43.96c0-1.29,1.62-2.91,3.23-2.91h83.71c14.54,0,87.27.65,87.27,76.93,0,39.43-21.66,60.12-47.51,69.49,16.16,36.52,33.61,72.08,49.77,107.95.97,2.26-.32,4.2-2.91,4.2Z"/>
    <path class="cls-1" d="m1087.04,271.31v-38.46c0-1.29,1.62-2.91,3.56-2.91h148.36c2.26,0,3.55,1.62,3.55,2.91v38.46c0,1.62-1.29,2.91-3.55,2.91h-148.36c-1.94,0-3.56-1.29-3.56-2.91Zm102.46,52.36v161.93c0,1.29-1.62,2.91-3.88,2.91h-41.7c-2.26,0-3.56-1.62-3.56-2.91v-161.93h49.13Z"/>
    <path class="cls-1" d="m1373.08,488.51h-119.27c-1.94,0-3.55-1.62-3.55-2.91v-252.76c0-1.29,1.61-2.91,3.55-2.91h119.27v46.87h-73.37v58.5h101.49c1.94,0,3.56,1.29,3.56,2.91v41.05c0,1.29-1.62,2.91-3.56,2.91h-101.49v58.18h73.37v48.16Z"/>
    <path class="cls-1" d="m1651.38,234.79l-89.21,124.44c19.07,26.18,38.14,53.01,57.21,79.84h-60.12l-26.83-37.82-61.73,86.3c-.32.65-2.26.97-2.91.97h-51.71c-3.23,0-4.53-2.59-2.59-4.85l88.57-124.44c-19.07-26.18-37.82-53.01-56.89-79.84h60.12l27.15,37.82,61.09-86.3c.32-.65,2.26-.97,2.91-.97h51.72c3.55,0,4.85,2.59,3.23,4.85Z"/>
  </g>
  <g>
    <path class="cls-1" d="m1128.7,70.71h30.22c4.31,22.73,7.71,42.27,10.18,58.63l2.6-16.33c1.05-6.36,2.18-12.57,3.39-18.62l4.66-23.67h30.85l11.99,105.35h-23.67l-6.39-72.44-14.76,72.44h-16.18l-15.47-72.6-6.16,72.6h-22.65l11.36-105.35Z"/>
    <path class="cls-1" d="m1231.76,103.46h22.65l5.76,18.86c2,6.63,3.73,13.13,5.21,19.49h.39c1.21-6.05,2.21-10.39,3-13.02l7.65-25.33h22.96l-30.93,102.51h-22.88l9.31-30.85-23.12-71.65Z"/>
    <path class="cls-1" d="m1345.7,176.05v-9.55h-.32c-2.79,4.1-5.49,7.13-8.09,9.07-2.61,1.95-5.67,2.92-9.19,2.92-6.89,0-12.39-3.52-16.49-10.57-4.1-7.05-6.16-16.62-6.16-28.72s2.08-20.88,6.23-27.78c4.16-6.89,9.63-10.34,16.41-10.34,3.63,0,6.71.91,9.23,2.72,2.53,1.81,5.15,4.72,7.89,8.72h.32v-9.07h22.96v72.6h-22.81Zm0-36.69c0-12.05-2.95-18.07-8.84-18.07s-8.92,6.02-8.92,18.07,3.08,18.78,9.23,18.78c5.68,0,8.52-6.26,8.52-18.78Z"/>
    <path class="cls-1" d="m1408.91,103.46v9.86h.39c5.37-8.15,11.92-12.23,19.65-12.23,5.05,0,9.06,1.68,12.03,5.05,2.97,3.37,4.46,7.92,4.46,13.65v56.26h-22.96v-44.74c0-2.47-.58-4.5-1.74-6.08-1.16-1.58-2.66-2.37-4.5-2.37-4.89,0-7.34,3.08-7.34,9.23v43.95h-22.88v-72.6h22.88Z"/>
    <path class="cls-1" d="m1485.22,103.46v8.92c6.52-7.63,13.15-11.44,19.89-11.44,8.1,0,13.34,4.18,15.7,12.55,3.68-4.36,7.11-7.55,10.3-9.55,3.18-2,6.9-3,11.16-3,10.68,0,16.02,7.47,16.02,22.41v52.71h-22.96v-42.85c0-7-2.26-10.5-6.79-10.5s-6.94,3.45-6.94,10.34v43.01h-22.96v-44.11c0-2.68-.62-4.89-1.86-6.63s-2.83-2.6-4.77-2.6c-2.05,0-3.7.84-4.93,2.53-1.24,1.68-1.86,3.97-1.86,6.87v43.95h-22.88v-72.6h22.88Z"/>
    <path class="cls-1" d="m1611.32,176.05v-9.55h-.32c-2.79,4.1-5.49,7.13-8.09,9.07-2.61,1.95-5.67,2.92-9.19,2.92-6.89,0-12.39-3.52-16.49-10.57-4.1-7.05-6.16-16.62-6.16-28.72s2.08-20.88,6.23-27.78c4.16-6.89,9.63-10.34,16.41-10.34,3.63,0,6.71.91,9.23,2.72,2.53,1.81,5.15,4.72,7.89,8.72h.32v-9.07h22.96v72.6h-22.81Zm0-36.69c0-12.05-2.95-18.07-8.84-18.07s-8.92,6.02-8.92,18.07,3.08,18.78,9.23,18.78c5.68,0,8.52-6.26,8.52-18.78Z"/>
    <path class="cls-1" d="m1673.58,103.46v12.15h.32c5.47-9.47,11.23-14.2,17.28-14.2.89,0,2.13.16,3.71.47v22.49c-2.79-.47-5.37-.71-7.73-.71-8.42,0-12.63,5.44-12.63,16.33v36.06h-22.88v-72.6h21.94Z"/>
  </g>
</svg>